<?xml version="1.0" standalone="no"?>
<!DOCTYPE svg PUBLIC "-//W3C//DTD SVG 20010904//EN"
 "http://www.w3.org/TR/2001/REC-SVG-20010904/DTD/svg10.dtd">
<svg version="1.0" xmlns="http://www.w3.org/2000/svg"
 width="600.000000pt" height="419.000000pt" viewBox="0 0 600.000000 419.000000"
 preserveAspectRatio="xMidYMid meet">

<g transform="translate(0.000000,419.000000) scale(0.100000,-0.100000)"
fill="#d1d5db" stroke="none">
<path d="M3035 2821 c-11 -4 -25 -6 -31 -4 -7 2 -15 0 -18 -5 -9 -14 141 -21
559 -27 207 -3 354 -1 345 4 -32 19 -818 48 -855 32z"/>
<path d="M2881 2808 c-13 -4 -21 -11 -18 -14 3 -4 14 -3 24 1 10 4 28 7 41 6
12 -1 22 2 22 7 0 12 -37 12 -69 0z"/>
<path d="M2555 2793 c-22 -1 -83 -8 -135 -14 -52 -6 -111 -12 -130 -14 -50 -4
-80 -15 -80 -30 0 -10 8 -11 28 -6 15 4 54 9 86 10 33 1 65 5 70 9 14 8 38 9
226 12 95 1 145 5 130 10 -14 4 -19 8 -12 9 6 1 12 6 12 11 0 9 -100 11 -195
3z"/>
<path d="M3928 2783 c12 -2 30 -2 40 0 9 3 -1 5 -23 4 -22 0 -30 -2 -17 -4z"/>
<path d="M4009 2779 c-15 -5 -1 -7 39 -8 34 -1 62 1 62 3 0 8 -78 11 -101 5z"/>
<path d="M2798 2763 c12 -2 32 -2 45 0 12 2 2 4 -23 4 -25 0 -35 -2 -22 -4z"/>
<path d="M3419 2736 c-2 -2 -195 -6 -429 -10 -376 -5 -539 -14 -800 -42 -61
-7 -64 -6 -51 10 13 15 13 19 0 27 -8 5 -25 9 -37 9 -28 0 -349 -53 -455 -76
-40 -8 -99 -17 -132 -19 -33 -3 -98 -9 -145 -15 -47 -5 -148 -14 -225 -20
-218 -18 -469 -60 -452 -76 2 -2 59 3 128 11 154 18 242 18 124 0 l-80 -12
110 -3 c103 -1 108 -2 75 -15 -19 -7 -34 -18 -32 -24 1 -6 -12 -11 -31 -11
-39 0 -51 -8 -36 -26 6 -8 23 -11 43 -7 46 7 56 -14 11 -23 -20 -3 -34 -11
-32 -18 5 -15 73 -9 109 10 28 14 54 11 43 -5 -7 -13 -123 -33 -146 -26 -11 4
-30 0 -44 -9 -28 -19 -62 -21 -67 -5 -3 9 -10 9 -27 0 -12 -7 -20 -18 -18 -24
5 -14 68 -14 182 1 44 6 114 11 155 10 69 0 72 -1 30 -9 -25 -4 -67 -8 -93 -8
-27 -1 -46 -5 -43 -10 3 -4 0 -15 -7 -24 -9 -13 -36 -18 -114 -22 -56 -3 -112
-9 -125 -15 -22 -8 -22 -9 5 -9 15 -1 27 -5 27 -11 0 -6 27 -10 60 -10 47 0
58 -3 54 -14 -3 -8 -27 -17 -56 -21 -29 -4 -45 -10 -38 -15 6 -4 -12 -6 -42
-4 -36 2 -44 1 -24 -4 l29 -7 -34 -12 c-19 -6 -70 -19 -113 -28 -44 -9 -84
-22 -90 -30 -6 -8 -20 -18 -31 -22 -36 -15 -85 -48 -85 -57 0 -5 19 -6 42 -3
52 7 106 -2 86 -14 -11 -7 -10 -11 2 -19 8 -5 13 -10 10 -10 -26 -2 -114 -40
-113 -48 3 -12 -18 -17 -132 -32 -89 -12 -116 -26 -67 -36 17 -4 29 -10 26
-15 -3 -5 5 -9 18 -9 19 0 20 -2 8 -11 -11 -8 -2 -9 36 -5 28 4 66 1 85 -5 19
-6 41 -13 49 -16 12 -3 10 -8 -9 -22 -22 -17 -23 -19 -6 -28 14 -8 0 -12 -61
-18 -66 -6 -76 -9 -61 -20 9 -7 17 -17 17 -24 0 -7 24 -11 68 -11 58 -1 65 -2
50 -14 -10 -7 -18 -18 -18 -25 0 -6 -9 -11 -21 -11 -41 0 -111 -22 -97 -31 7
-5 23 -9 36 -9 15 0 22 -6 22 -19 0 -19 -25 -31 -71 -31 -14 0 -34 -7 -45 -15
-18 -14 -18 -14 6 -14 14 0 79 4 145 9 140 11 285 -4 246 -24 -19 -11 -16 -13
36 -24 77 -17 209 -20 223 -6 9 9 1 10 -32 4 -24 -5 -45 -6 -47 -4 -13 12 21
19 110 21 55 1 119 9 142 17 72 24 258 65 347 76 94 11 478 2 445 -11 -11 -4
-34 -8 -52 -8 -18 -1 -36 -7 -40 -15 -4 -8 -40 -23 -79 -34 -81 -23 -125 -43
-106 -50 7 -2 10 -13 6 -26 -3 -14 2 -28 14 -40 18 -16 29 -16 124 -5 56 6
111 16 121 21 10 5 100 16 200 24 100 9 211 18 247 21 47 4 59 8 45 14 -14 5
-4 8 35 9 124 3 239 11 305 20 39 5 141 12 228 14 125 4 160 8 173 20 13 14
56 16 307 16 161 0 330 -4 377 -10 47 -5 181 -12 299 -15 222 -6 326 -13 621
-41 202 -19 183 -18 323 -16 76 1 106 5 101 13 -4 8 1 9 16 4 15 -5 20 -4 16
4 -5 7 4 11 24 11 56 0 22 17 -60 30 -44 7 -80 16 -80 21 0 12 17 11 59 -1 19
-5 45 -7 59 -3 l25 6 -29 13 -29 12 30 1 c17 0 49 -4 73 -8 36 -7 42 -6 42 9
0 12 -11 20 -35 24 -19 4 -47 13 -62 21 l-28 15 40 2 c22 1 54 2 70 3 52 1
100 16 84 26 -11 7 -10 9 4 9 22 0 22 19 0 36 -16 11 -15 13 12 19 72 15 75
35 9 54 -61 17 -44 28 55 35 39 3 76 8 82 11 16 11 10 32 -12 38 -12 3 -18 10
-15 16 4 6 -3 13 -16 15 -60 13 -57 15 17 12 82 -4 131 6 120 24 -3 5 -17 10
-29 10 -13 0 -38 6 -54 13 -29 12 -30 13 -12 25 11 7 28 12 39 12 14 0 18 5
14 20 -5 18 0 20 38 20 28 0 39 3 31 9 -17 10 -14 22 7 38 21 15 9 19 -79 28
-90 9 -120 16 -120 27 0 6 35 8 93 4 88 -5 90 -5 46 8 -25 7 -54 18 -65 24
-16 10 -13 11 21 12 65 1 74 16 13 25 -53 7 -53 7 -23 18 l30 12 -40 5 -40 6
35 10 35 10 -33 7 c-19 4 -31 11 -27 17 3 6 16 8 28 5 12 -3 40 -2 62 4 22 5
33 9 24 10 -9 1 -46 11 -83 22 -48 15 -66 25 -62 35 4 10 -3 14 -25 14 -17 0
-65 9 -107 19 -43 11 -124 23 -181 27 -96 6 -102 8 -75 20 16 7 27 13 24 14
-12 4 -192 21 -274 27 -143 9 -79 23 119 24 164 2 172 2 90 10 -49 4 -178 13
-285 19 -186 11 -230 16 -400 39 -41 5 -160 15 -265 21 -104 6 -212 14 -240
18 l-50 6 50 7 c28 4 145 0 260 -7 116 -8 260 -14 320 -13 61 0 151 1 200 1
79 0 71 1 -69 13 -87 8 -161 17 -165 20 -3 4 30 4 74 1 44 -3 139 -8 210 -11
72 -3 139 -8 150 -10 11 -3 35 -1 54 3 67 15 -242 42 -749 66 -277 14 -489 26
-696 41 -34 2 -63 3 -65 1z m-2241 -313 c-10 -2 -26 -2 -35 0 -10 3 -2 5 17 5
19 0 27 -2 18 -5z m4255 -120 c-7 -2 -19 -2 -25 0 -7 3 -2 5 12 5 14 0 19 -2
13 -5z m-3265 -860 c-10 -2 -26 -2 -35 0 -10 3 -2 5 17 5 19 0 27 -2 18 -5z"/>
<path d="M4970 2626 c0 -2 14 -6 30 -8 17 -3 30 -1 30 4 0 4 -13 8 -30 8 -16
0 -30 -2 -30 -4z"/>
<path d="M4793 2603 c9 -2 23 -2 30 0 6 3 -1 5 -18 5 -16 0 -22 -2 -12 -5z"/>
<path d="M4885 2600 c25 -9 179 -18 162 -9 -7 4 -50 9 -97 12 -47 3 -76 1 -65
-3z"/>
<path d="M845 2520 c-3 -5 -1 -10 4 -10 6 0 11 5 11 10 0 6 -2 10 -4 10 -3 0
-8 -4 -11 -10z"/>
<path d="M892 2383 c-19 -8 -4 -22 18 -16 11 3 17 9 14 14 -6 10 -12 10 -32 2z"/>
<path d="M906 2302 c-2 -4 11 -6 30 -4 19 2 34 6 34 8 0 8 -59 4 -64 -4z"/>
<path d="M410 1790 c-24 -8 -24 -8 5 -8 17 0 39 3 50 8 18 8 18 9 -5 8 -14 0
-36 -4 -50 -8z"/>
<path d="M715 1409 c4 -5 22 -9 42 -9 45 0 40 5 -10 13 -22 3 -35 2 -32 -4z"/>
</g>
</svg>
