<?xml version="1.0" encoding="UTF-8" standalone="no" ?>
<!DOCTYPE svg PUBLIC "-//W3C//DTD SVG 1.1//EN" "http://www.w3.org/Graphics/SVG/1.1/DTD/svg11.dtd">
<svg xmlns="http://www.w3.org/2000/svg" xmlns:xlink="http://www.w3.org/1999/xlink" version="1.1" width="200" height="300" viewBox="0 0 200 300" xml:space="preserve">
<desc>Created with Fabric.js 5.2.4</desc>
<defs>
</defs>
<g transform="matrix(1 0 0 1 100 150)" id="7fd6f503-3620-4c76-b9d8-6aad7c0b3b8e"  >
<rect style="stroke: none; stroke-width: 1; stroke-dasharray: none; stroke-linecap: butt; stroke-dashoffset: 0; stroke-linejoin: miter; stroke-miterlimit: 4; fill: rgb(255,255,255); fill-rule: nonzero; opacity: 1; visibility: hidden;" vector-effect="non-scaling-stroke"  x="-100" y="-150" rx="0" ry="0" width="200" height="300" />
</g>
<g transform="matrix(Infinity NaN NaN Infinity 0 0)" id="0d398266-e718-4c0d-af76-f6444e6dbec3"  >
</g>
<g transform="matrix(0.92 0 0 0.92 100 150)" id="8bfbad2b-3de5-4266-a6be-c1641067e6bf"  >
<path style="stroke: rgb(0,0,0); stroke-width: 0; stroke-dasharray: none; stroke-linecap: butt; stroke-dashoffset: 0; stroke-linejoin: miter; stroke-miterlimit: 4; fill: rgb(0,0,0); fill-rule: nonzero; opacity: 1;" vector-effect="non-scaling-stroke"  transform=" translate(-540.99, -470.09)" d="M 628.93 571.64 C 613.0799999999999 560.09 600.13 544.71 591.4599999999999 527.14 L 591.2499999999999 526.72 C 583.1599999999999 510.15000000000003 579.0599999999998 492.3 579.0599999999998 473.66 C 579.0599999999998 471.76000000000005 579.0999999999998 469.83000000000004 579.1899999999998 467.94 L 579.4399999999998 462.4 L 574.5999999999998 465.10999999999996 C 571.7599999999998 466.69999999999993 568.8099999999998 468.43999999999994 565.8099999999998 470.28999999999996 L 565.8099999999998 440.01 C 566.8599999999998 437.31 567.6899999999998 434.65 568.2499999999999 432.08 L 568.2499999999999 432.08 C 568.2499999999999 432.08 568.2499999999999 432.08 568.2499999999999 432.08 L 568.4199999999998 431.27 C 568.4799999999998 430.96 568.5499999999998 430.65999999999997 568.5999999999998 430.34 L 568.7899999999998 429.25 C 568.7899999999998 429.25 568.7899999999998 429.25 568.7899999999998 429.25 L 568.7899999999998 429.25 C 568.7899999999998 429.25 568.7899999999998 429.2 568.7899999999998 429.18 C 568.9799999999999 427.96 569.1099999999999 426.74 569.1899999999998 425.55 L 600.6299999999999 425.55 C 602.3299999999999 425.55 603.7199999999999 424.17 603.7199999999999 422.46000000000004 C 603.7199999999999 420.75000000000006 602.3399999999999 419.37000000000006 600.6299999999999 419.37000000000006 L 569.3199999999999 419.37000000000006 L 569.3199999999999 308.24000000000007 L 483.7699999999999 308.24000000000007 L 483.7699999999999 419.37000000000006 L 452.8599999999999 419.37000000000006 C 451.1599999999999 419.37000000000006 449.7699999999999 420.75000000000006 449.7699999999999 422.46000000000004 C 449.7699999999999 424.17 451.1499999999999 425.55 452.8599999999999 425.55 L 483.7699999999999 425.55 L 483.7699999999999 515.86 L 488.3299999999999 513.38 C 488.6699999999999 513.1899999999999 495.80999999999995 509.29 505.81999999999994 502.61 L 505.81999999999994 522.42 C 505.38999999999993 522.9399999999999 504.94999999999993 523.4599999999999 504.5299999999999 523.9799999999999 C 487.7899999999999 544.4799999999999 474.5799999999999 567.3799999999999 465.2499999999999 592.0799999999999 L 465.2499999999999 592.0799999999999 C 465.2499999999999 592.0799999999999 465.20999999999987 592.18 465.20999999999987 592.18 C 465.1999999999999 592.2199999999999 465.1799999999999 592.26 465.15999999999985 592.3 C 465.15999999999985 592.3 465.15999999999985 592.31 465.15999999999985 592.3199999999999 L 465.03999999999985 592.6299999999999 C 460.6999999999999 604.1899999999998 457.22999999999985 616.1699999999998 454.72999999999985 628.2299999999999 L 453.95999999999987 631.9399999999999 L 580.4399999999998 631.9399999999999 L 581.3399999999998 630.4399999999999 C 593.8199999999998 609.67 609.8499999999998 591.54 628.9899999999998 576.5699999999999 L 632.2099999999998 574.05 L 628.9099999999999 571.64 Z M 525.52 501.34 C 525.17 501.66999999999996 524.8199999999999 502.01 524.47 502.34999999999997 C 523.7900000000001 502.99999999999994 523.11 503.65999999999997 522.44 504.32 C 522.0400000000001 504.71999999999997 521.6400000000001 505.11 521.24 505.51 C 520.62 506.13 520.01 506.74 519.4 507.36 C 518.99 507.78000000000003 518.5799999999999 508.2 518.18 508.62 C 517.5799999999999 509.24 516.9799999999999 509.87 516.39 510.49 C 515.99 510.91 515.6 511.33 515.21 511.75 C 514.59 512.42 513.97 513.09 513.36 513.76 C 513.01 514.14 512.66 514.52 512.3100000000001 514.91 C 512.21 515.02 512.11 515.13 512.0100000000001 515.24 L 512.0100000000001 498.36 C 512.07 498.32 512.1400000000001 498.27000000000004 512.2000000000002 498.22 C 513.0800000000002 497.6 513.9700000000001 496.97 514.8700000000001 496.32000000000005 C 515.0600000000002 496.18000000000006 515.2500000000001 496.0400000000001 515.4500000000002 495.90000000000003 C 516.3400000000001 495.26000000000005 517.2300000000001 494.6 518.1300000000001 493.94000000000005 C 518.19 493.90000000000003 518.2500000000001 493.8500000000001 518.3000000000001 493.81000000000006 C 519.23 493.11000000000007 520.1800000000001 492.40000000000003 521.1200000000001 491.68000000000006 C 521.3300000000002 491.52000000000004 521.5300000000001 491.37000000000006 521.7400000000001 491.21000000000004 C 522.6700000000001 490.49 523.6100000000001 489.76000000000005 524.5500000000001 489.02000000000004 C 524.71 488.90000000000003 524.86 488.77000000000004 525.0200000000001 488.64000000000004 C 525.8900000000001 487.94000000000005 526.7700000000001 487.24000000000007 527.6400000000001 486.52000000000004 C 527.7900000000001 486.40000000000003 527.9300000000001 486.28000000000003 528.0800000000002 486.16 C 529.0200000000002 485.39000000000004 529.9600000000002 484.6 530.9000000000002 483.8 C 531.1100000000002 483.62 531.3100000000002 483.45 531.5200000000002 483.27000000000004 C 532.4700000000003 482.45000000000005 533.4200000000002 481.63000000000005 534.3700000000002 480.79 C 534.4500000000003 480.72 534.5200000000002 480.65000000000003 534.6000000000003 480.58000000000004 C 535.5000000000002 479.78000000000003 536.3800000000002 478.97 537.2700000000002 478.16 C 537.4500000000002 477.99 537.6300000000002 477.83000000000004 537.8100000000002 477.66 C 538.7200000000001 476.81 539.6300000000002 475.95000000000005 540.5300000000002 475.08000000000004 C 540.7100000000002 474.91 540.8800000000002 474.73 541.0600000000002 474.56000000000006 C 541.9400000000002 473.70000000000005 542.8100000000002 472.83000000000004 543.6700000000002 471.96000000000004 C 543.7300000000001 471.90000000000003 543.7800000000002 471.85 543.8400000000001 471.79 C 544.7300000000001 470.88 545.6000000000001 469.95000000000005 546.4700000000001 469.02000000000004 C 546.6500000000001 468.82000000000005 546.8300000000002 468.63000000000005 547.0100000000001 468.43000000000006 C 547.8600000000001 467.51000000000005 548.69 466.58000000000004 549.5100000000001 465.64000000000004 C 549.6400000000001 465.50000000000006 549.7600000000001 465.35 549.8800000000001 465.20000000000005 C 550.6400000000001 464.32000000000005 551.3800000000001 463.44000000000005 552.1100000000001 462.54 C 552.2300000000001 462.39000000000004 552.3500000000001 462.25 552.4700000000001 462.1 C 553.2400000000001 461.14000000000004 554.0000000000001 460.18 554.7300000000001 459.20000000000005 C 554.8900000000001 458.99000000000007 555.0400000000001 458.78000000000003 555.2000000000002 458.57000000000005 C 555.9400000000002 457.58000000000004 556.6600000000002 456.58000000000004 557.3600000000001 455.57000000000005 C 557.4100000000001 455.50000000000006 557.4500000000002 455.43000000000006 557.5000000000001 455.36000000000007 C 558.1600000000001 454.4000000000001 558.7900000000001 453.43000000000006 559.4100000000001 452.4600000000001 C 559.4900000000001 452.3400000000001 559.58 452.2200000000001 559.6500000000001 452.0900000000001 L 559.6500000000001 474.1900000000001 C 559.1700000000001 474.5100000000001 558.69 474.8300000000001 558.2200000000001 475.1500000000001 C 557.7600000000001 475.4600000000001 557.3000000000002 475.7600000000001 556.8400000000001 476.0700000000001 C 556.0100000000001 476.6300000000001 555.1900000000002 477.2000000000001 554.3700000000001 477.7700000000001 C 554.0200000000001 478.0200000000001 553.6600000000001 478.2600000000001 553.3100000000002 478.5000000000001 C 552.1500000000002 479.3200000000001 550.9900000000001 480.1500000000001 549.8500000000001 480.98000000000013 C 549.6200000000001 481.15000000000015 549.4000000000001 481.3100000000001 549.1800000000002 481.48000000000013 C 548.2600000000002 482.16000000000014 547.3300000000002 482.84000000000015 546.4200000000002 483.54000000000013 C 546.0200000000002 483.84000000000015 545.6200000000002 484.15000000000015 545.2300000000001 484.46000000000015 C 544.4900000000001 485.03000000000014 543.7600000000001 485.59000000000015 543.0300000000001 486.17000000000013 C 542.59 486.5100000000001 542.1600000000001 486.8600000000001 541.7300000000001 487.2000000000001 C 541.0400000000001 487.7500000000001 540.3500000000001 488.3100000000001 539.6600000000001 488.8700000000001 C 539.22 489.23000000000013 538.7900000000001 489.5800000000001 538.3500000000001 489.9400000000001 C 537.6600000000001 490.5100000000001 536.9800000000001 491.0800000000001 536.3000000000002 491.6500000000001 C 535.8800000000002 492.0000000000001 535.4700000000001 492.3500000000001 535.0600000000002 492.7000000000001 C 534.3300000000002 493.3300000000001 533.6000000000001 493.9600000000001 532.8800000000002 494.5900000000001 C 532.5300000000002 494.9000000000001 532.1800000000002 495.2000000000001 531.8300000000003 495.5100000000001 C 530.7900000000003 496.4300000000001 529.7600000000002 497.3600000000001 528.7300000000002 498.3000000000001 C 528.7000000000003 498.3300000000001 528.6700000000003 498.35000000000014 528.6500000000002 498.3800000000001 C 527.6100000000002 499.3400000000001 526.5700000000002 500.3100000000001 525.5500000000002 501.29000000000013 Z M 563.02 425.54 C 563.01 425.70000000000005 563 425.87 562.98 426.03000000000003 C 562.96 426.21000000000004 562.95 426.39000000000004 562.9300000000001 426.57000000000005 C 562.8700000000001 427.13000000000005 562.8000000000001 427.68000000000006 562.71 428.22 L 562.5400000000001 429.24 C 562.4900000000001 429.5 562.44 429.76 562.3800000000001 430.02 L 562.2300000000001 430.71 C 561.9300000000002 431.96999999999997 561.6100000000001 433.09999999999997 561.2100000000002 434.26 C 561.1300000000001 434.51 561.0500000000002 434.75 560.9600000000002 434.99 L 560.9000000000002 435.16 C 560.7000000000002 435.68 560.4900000000002 436.20000000000005 560.2700000000002 436.71000000000004 L 560.2300000000002 436.8 C 560.1400000000002 437.03000000000003 560.0400000000002 437.26 559.9300000000003 437.49 C 559.9300000000003 437.5 559.9300000000003 437.51 559.9200000000003 437.52 L 559.9000000000003 437.54999999999995 C 553.9800000000004 450.60999999999996 540.8900000000003 459.04999999999995 526.5600000000003 459.04999999999995 C 507.4200000000003 459.04999999999995 491.6700000000003 444.28 490.1000000000003 425.53 L 563.0200000000003 425.53 Z M 490.1 419.37 C 491.67 400.63 507.42 385.85 526.5600000000001 385.85 C 545.7 385.85 561.45 400.62 563.0200000000001 419.37 L 490.0900000000001 419.37 Z M 563.17 314.41 L 563.17 400.34000000000003 C 555.67 387.97 542.0699999999999 379.68 526.5699999999999 379.68 C 511.06999999999994 379.68 497.4699999999999 387.97 489.9699999999999 400.34000000000003 L 489.9699999999999 314.41 L 563.18 314.41 Z M 489.96 444.57 C 497.46 456.94 511.06 465.23 526.56 465.23 C 533.28 465.23 539.77 463.64000000000004 545.5699999999999 460.76 C 545.4499999999999 460.9 545.3399999999999 461.03 545.2199999999999 461.17 C 544.9799999999999 461.45 544.7299999999999 461.74 544.4799999999999 462.02000000000004 C 544.2199999999999 462.32000000000005 543.9499999999999 462.62000000000006 543.68 462.93000000000006 C 543.42 463.2200000000001 543.16 463.51000000000005 542.9 463.80000000000007 C 542.62 464.11000000000007 542.3299999999999 464.4200000000001 542.05 464.7300000000001 C 541.78 465.0200000000001 541.51 465.32000000000005 541.2299999999999 465.62000000000006 C 540.9399999999999 465.93000000000006 540.6299999999999 466.25000000000006 540.3299999999999 466.56000000000006 C 540.04 466.86000000000007 539.7599999999999 467.1600000000001 539.4599999999999 467.4700000000001 C 539.15 467.7900000000001 538.8299999999999 468.11000000000007 538.5199999999999 468.43000000000006 C 538.2199999999999 468.74000000000007 537.9199999999998 469.0400000000001 537.5999999999999 469.3500000000001 C 537.2799999999999 469.6700000000001 536.9399999999999 470.00000000000006 536.6099999999999 470.3200000000001 C 536.2899999999998 470.6300000000001 535.9699999999999 470.9500000000001 535.6399999999999 471.2600000000001 C 535.2999999999998 471.5900000000001 534.9499999999998 471.92000000000013 534.5999999999999 472.2400000000001 C 534.2599999999999 472.5600000000001 533.93 472.8800000000001 533.5799999999999 473.2000000000001 C 533.2299999999999 473.5300000000001 532.8599999999999 473.8600000000001 532.4899999999999 474.2000000000001 C 532.1399999999999 474.5300000000001 531.7899999999998 474.8500000000001 531.4199999999998 475.1800000000001 C 531.0499999999998 475.5200000000001 530.6599999999999 475.85000000000014 530.2799999999999 476.1900000000001 C 529.9099999999999 476.5200000000001 529.5399999999998 476.85000000000014 529.1599999999999 477.1800000000001 C 528.7699999999999 477.5200000000001 528.3599999999999 477.8700000000001 527.9599999999998 478.2100000000001 C 527.5699999999998 478.5400000000001 527.1899999999998 478.8800000000001 526.7999999999998 479.2100000000001 C 526.3899999999999 479.5600000000001 525.9599999999998 479.9100000000001 525.5399999999998 480.2700000000001 C 525.1399999999999 480.61000000000007 524.7399999999999 480.9400000000001 524.3299999999998 481.2800000000001 C 523.8899999999998 481.6400000000001 523.4399999999998 482.0000000000001 522.9999999999998 482.36000000000007 C 522.5899999999998 482.70000000000005 522.1799999999997 483.0300000000001 521.7499999999998 483.37000000000006 C 521.2899999999997 483.74000000000007 520.7999999999997 484.12000000000006 520.3299999999998 484.49000000000007 C 519.9099999999999 484.82000000000005 519.4899999999998 485.1500000000001 519.0599999999998 485.49000000000007 C 518.5599999999998 485.88000000000005 518.0399999999998 486.27000000000004 517.5299999999999 486.6600000000001 C 517.0999999999999 486.99000000000007 516.6899999999998 487.31000000000006 516.2499999999999 487.6400000000001 C 515.6899999999999 488.0600000000001 515.1199999999999 488.4800000000001 514.5499999999998 488.9100000000001 C 514.1399999999999 489.2100000000001 513.7399999999999 489.5100000000001 513.3299999999998 489.8200000000001 C 512.6599999999999 490.3100000000001 511.9599999999998 490.8100000000001 511.2699999999998 491.3100000000001 C 510.9399999999998 491.5500000000001 510.61999999999983 491.78000000000014 510.2899999999998 492.0200000000001 C 509.2599999999998 492.7600000000001 508.1999999999998 493.5000000000001 507.12999999999977 494.2500000000001 L 507.0999999999998 494.2700000000001 C 500.0299999999998 499.1900000000001 493.8699999999998 503.0000000000001 489.9299999999998 505.3300000000001 L 489.9299999999998 444.5900000000001 Z M 509.34 527.87 C 509.97999999999996 527.08 510.63 526.29 511.29999999999995 525.5 C 513.2099999999999 523.22 515.17 520.97 517.16 518.77 C 531.1 503.33 546.9699999999999 489.79999999999995 564.42 478.47999999999996 L 564.43 478.47999999999996 C 565.8599999999999 477.54999999999995 567.29 476.64 568.7299999999999 475.74999999999994 C 570.1299999999999 474.87999999999994 571.5199999999999 474.03999999999996 572.8999999999999 473.21999999999997 C 572.8999999999999 473.36999999999995 572.8999999999999 473.51 572.8999999999999 473.65999999999997 C 572.8999999999999 491.79999999999995 576.5999999999999 509.23999999999995 583.9099999999999 525.56 C 583.8699999999999 525.56 583.8199999999998 525.5799999999999 583.7699999999999 525.5799999999999 C 583.4399999999998 525.6299999999999 583.0999999999999 525.68 582.7399999999999 525.7399999999999 C 582.6699999999998 525.7499999999999 582.5899999999999 525.7699999999999 582.5199999999999 525.7799999999999 C 582.1999999999998 525.8299999999998 581.8799999999999 525.8899999999999 581.5399999999998 525.9499999999998 C 581.4099999999999 525.9699999999998 581.2799999999999 525.9999999999998 581.1499999999999 526.0199999999999 C 580.8099999999998 526.0799999999998 580.4499999999998 526.1499999999999 580.0799999999998 526.2199999999999 C 579.9899999999998 526.2399999999999 579.8999999999999 526.2499999999999 579.7999999999998 526.2699999999999 C 579.3399999999998 526.3599999999999 578.8699999999999 526.4499999999998 578.3699999999999 526.5499999999998 C 578.2499999999999 526.5699999999998 578.1299999999999 526.5999999999998 578.0199999999999 526.6199999999999 C 577.6199999999999 526.6999999999999 577.2099999999999 526.7899999999998 576.7799999999999 526.8799999999999 C 576.6399999999999 526.9099999999999 576.4999999999999 526.9399999999998 576.3499999999999 526.9699999999999 C 575.81 527.0899999999999 575.2499999999999 527.2099999999999 574.67 527.3399999999999 C 574.65 527.3399999999999 574.62 527.3499999999999 574.5999999999999 527.3599999999999 C 574.05 527.4799999999999 573.4899999999999 527.6199999999999 572.9099999999999 527.7599999999999 C 572.7499999999999 527.7999999999998 572.5899999999998 527.8399999999999 572.4299999999998 527.8799999999999 C 571.9199999999998 527.9999999999999 571.3999999999999 528.1299999999999 570.8599999999998 528.2699999999999 C 570.7399999999998 528.2999999999998 570.6299999999998 528.3299999999998 570.5099999999998 528.3599999999999 C 569.8699999999998 528.5199999999999 569.2099999999998 528.6899999999999 568.5399999999997 528.8699999999999 C 568.3899999999998 528.9099999999999 568.2399999999998 528.9499999999999 568.0899999999997 528.9899999999999 C 567.5499999999997 529.1399999999999 566.9899999999997 529.2899999999998 566.4299999999997 529.4499999999999 C 566.2399999999997 529.4999999999999 566.0599999999997 529.55 565.8699999999998 529.6099999999999 C 565.1599999999997 529.81 564.4299999999997 530.0199999999999 563.6899999999998 530.2399999999999 C 563.6799999999998 530.2399999999999 563.6699999999998 530.2399999999999 563.6599999999999 530.2399999999999 C 562.9399999999998 530.4499999999999 562.1999999999998 530.68 561.4499999999998 530.9099999999999 C 561.2399999999998 530.9699999999998 561.0299999999999 531.0399999999998 560.8199999999998 531.1099999999999 C 560.1999999999998 531.31 559.5599999999998 531.5099999999999 558.9199999999998 531.7199999999999 C 558.7499999999999 531.7699999999999 558.5899999999998 531.8299999999999 558.4199999999998 531.8799999999999 C 557.6299999999999 532.1399999999999 556.8299999999998 532.4099999999999 556.0099999999999 532.6899999999998 C 555.8299999999999 532.7499999999998 555.6399999999999 532.8199999999998 555.4599999999999 532.8799999999999 C 554.8 533.1099999999999 554.1399999999999 533.3399999999999 553.4599999999999 533.5799999999999 C 553.2199999999999 533.66 552.9899999999999 533.7499999999999 552.7499999999999 533.8299999999999 C 551.8999999999999 534.1399999999999 551.0399999999998 534.4499999999999 550.1699999999998 534.78 C 549.5599999999998 535.01 548.9299999999998 535.25 548.2999999999998 535.5 C 548.0899999999998 535.58 547.8799999999999 535.66 547.6699999999998 535.75 C 547.2399999999999 535.92 546.8099999999998 536.09 546.3699999999999 536.27 C 546.1199999999999 536.37 545.8699999999999 536.47 545.6199999999999 536.5699999999999 C 545.2099999999999 536.7399999999999 544.7999999999998 536.9 544.3899999999999 537.0699999999999 C 544.1199999999999 537.18 543.8399999999999 537.3 543.5699999999998 537.41 C 543.1699999999998 537.5799999999999 542.7699999999999 537.75 542.3599999999998 537.92 C 542.0699999999998 538.04 541.7899999999997 538.16 541.4999999999998 538.29 C 541.0899999999998 538.4599999999999 540.6799999999997 538.64 540.2699999999998 538.8199999999999 C 539.9799999999998 538.9499999999999 539.6799999999997 539.0799999999999 539.3899999999998 539.2099999999999 C 538.9699999999998 539.3899999999999 538.5599999999997 539.5799999999999 538.1399999999998 539.7699999999999 C 537.8399999999998 539.8999999999999 537.5399999999997 540.0399999999998 537.2399999999998 540.1799999999998 C 536.8099999999998 540.3799999999999 536.3699999999998 540.5799999999998 535.9299999999998 540.7799999999999 C 535.6399999999999 540.9199999999998 535.3499999999998 541.0499999999998 535.0499999999998 541.1899999999998 C 534.5899999999998 541.4099999999999 534.1199999999999 541.6299999999999 533.6599999999999 541.8499999999998 C 533.3799999999999 541.9799999999998 533.0999999999999 542.1199999999998 532.8199999999998 542.2499999999998 C 532.3199999999998 542.4899999999998 531.8099999999998 542.7399999999998 531.2999999999998 542.9899999999998 C 531.0499999999998 543.1099999999998 530.7999999999998 543.2399999999998 530.5499999999998 543.3599999999998 C 529.9399999999998 543.6599999999997 529.3299999999998 543.9699999999998 528.7099999999998 544.2899999999997 C 528.5499999999998 544.3699999999998 528.3999999999999 544.4499999999997 528.2399999999998 544.5299999999997 C 527.4499999999998 544.9399999999997 526.6499999999997 545.3499999999998 525.8499999999998 545.7699999999998 C 525.8399999999998 545.7699999999998 525.8299999999998 545.7799999999997 525.8099999999998 545.7899999999997 C 525.0399999999998 546.1999999999997 524.2499999999999 546.6199999999998 523.4699999999998 547.0499999999997 C 523.2499999999998 547.1699999999997 523.0299999999997 547.2899999999997 522.8099999999998 547.4099999999997 C 522.2299999999998 547.7299999999998 521.6399999999999 548.0499999999997 521.0599999999998 548.3799999999998 C 520.7799999999999 548.5399999999997 520.4999999999999 548.6999999999998 520.2199999999998 548.8599999999998 C 519.6899999999998 549.1599999999997 519.1599999999999 549.4599999999998 518.6199999999998 549.7699999999998 C 518.3099999999998 549.9499999999997 517.9899999999998 550.1299999999998 517.6799999999997 550.3099999999997 C 517.1699999999997 550.6099999999997 516.6499999999997 550.9099999999997 516.1299999999998 551.2199999999997 C 515.8099999999997 551.4099999999997 515.4799999999998 551.6099999999997 515.1599999999997 551.7999999999997 C 514.6499999999997 552.1099999999997 514.1299999999998 552.4199999999997 513.6199999999998 552.7299999999997 C 513.2899999999997 552.9299999999997 512.9599999999998 553.1299999999997 512.6299999999998 553.3399999999997 C 512.1099999999998 553.6599999999997 511.5999999999998 553.9799999999997 511.07999999999976 554.3099999999997 C 510.7499999999998 554.5199999999998 510.40999999999974 554.7299999999997 510.07999999999976 554.9399999999997 C 509.5499999999998 555.2699999999998 509.02999999999975 555.6099999999997 508.4999999999998 555.9599999999997 C 508.1699999999998 556.1699999999997 507.83999999999975 556.3799999999997 507.51999999999975 556.5999999999997 C 506.96999999999974 556.9599999999997 506.41999999999973 557.3299999999997 505.85999999999973 557.6999999999997 C 505.5499999999997 557.9099999999997 505.2399999999997 558.1099999999997 504.9299999999997 558.3199999999997 C 504.3299999999997 558.7199999999997 503.72999999999973 559.1299999999997 503.1299999999997 559.5499999999997 C 502.85999999999973 559.7299999999997 502.5899999999997 559.9199999999997 502.3199999999997 560.0999999999997 C 501.5699999999997 560.6199999999997 500.8099999999997 561.1499999999996 500.0499999999997 561.6899999999997 C 499.9299999999997 561.7699999999998 499.8099999999997 561.8499999999997 499.6999999999997 561.9399999999997 C 498.8099999999997 562.5699999999997 497.91999999999973 563.2199999999997 497.0299999999997 563.8699999999997 C 496.8799999999997 563.9799999999997 496.7199999999997 564.0999999999997 496.5699999999997 564.2099999999997 C 495.8399999999997 564.7499999999997 495.10999999999973 565.2899999999997 494.3799999999997 565.8399999999997 C 494.0899999999997 566.0599999999997 493.78999999999974 566.2899999999997 493.4999999999997 566.5099999999996 C 492.90999999999974 566.9599999999997 492.3199999999997 567.4099999999996 491.71999999999974 567.8799999999997 C 491.37999999999977 568.1499999999996 491.03999999999974 568.4199999999996 490.68999999999977 568.6899999999996 C 490.13999999999976 569.1199999999995 489.58999999999975 569.5499999999996 489.0499999999998 569.9899999999996 C 488.68999999999977 570.2799999999995 488.31999999999977 570.5799999999996 487.9599999999998 570.8699999999995 C 487.42999999999984 571.2999999999995 486.8999999999998 571.7299999999996 486.3799999999998 572.1599999999995 C 485.99999999999983 572.4699999999995 485.61999999999983 572.7899999999995 485.23999999999984 573.1099999999996 C 484.71999999999986 573.5399999999995 484.20999999999987 573.9699999999996 483.6899999999998 574.4099999999995 C 483.29999999999984 574.7399999999996 482.91999999999985 575.0699999999995 482.5299999999998 575.3999999999995 C 482.0199999999998 575.8399999999996 481.49999999999983 576.2899999999995 480.9899999999998 576.7399999999996 C 480.5999999999998 577.0799999999996 480.2199999999998 577.4199999999995 479.82999999999976 577.7599999999995 C 479.3099999999998 578.2199999999996 478.7999999999998 578.6799999999995 478.27999999999975 579.1499999999995 C 477.88999999999976 579.4999999999995 477.50999999999976 579.8399999999996 477.1199999999997 580.1999999999995 C 476.9899999999997 580.3199999999995 476.84999999999974 580.4399999999995 476.71999999999974 580.5699999999995 C 485.22999999999973 561.6999999999995 496.15999999999974 544.0299999999995 509.33999999999975 527.8899999999995 Z M 576.98 625.76 L 461.6 625.76 C 463.92 615.45 466.95000000000005 605.23 470.64000000000004 595.3199999999999 L 471.24000000000007 594.64 C 471.9800000000001 593.79 472.68000000000006 592.98 473.4200000000001 592.24 C 474.25000000000006 591.41 475.07000000000005 590.6 475.9000000000001 589.8 C 476.1700000000001 589.54 476.4500000000001 589.28 476.7200000000001 589.01 C 477.2700000000001 588.48 477.8300000000001 587.9399999999999 478.3900000000001 587.42 C 478.7200000000001 587.11 479.0400000000001 586.81 479.3700000000001 586.51 C 479.8700000000001 586.04 480.3800000000001 585.5699999999999 480.8800000000001 585.11 C 481.2200000000001 584.79 481.5700000000001 584.48 481.9100000000001 584.17 C 482.4000000000001 583.7299999999999 482.8900000000001 583.28 483.3800000000001 582.8499999999999 C 483.73000000000013 582.54 484.0700000000001 582.2299999999999 484.42000000000013 581.93 C 484.91000000000014 581.5 485.40000000000015 581.0699999999999 485.89000000000016 580.65 C 486.2400000000002 580.35 486.58000000000015 580.05 486.9300000000002 579.76 C 487.4300000000002 579.33 487.9200000000002 578.92 488.4200000000002 578.5 C 488.75000000000017 578.22 489.0900000000002 577.94 489.4200000000002 577.66 C 489.94000000000017 577.2199999999999 490.4700000000002 576.79 490.9900000000002 576.37 C 491.2900000000002 576.12 491.6000000000002 575.87 491.9000000000002 575.63 C 492.5100000000002 575.13 493.12000000000023 574.65 493.7300000000002 574.16 C 493.9500000000002 573.99 494.1600000000002 573.81 494.38000000000017 573.64 C 495.20000000000016 572.99 496.03000000000014 572.35 496.8500000000002 571.72 C 497.0300000000002 571.58 497.2200000000002 571.44 497.4000000000002 571.3000000000001 C 498.0400000000002 570.82 498.6700000000002 570.33 499.31000000000023 569.86 C 499.61000000000024 569.64 499.91000000000025 569.42 500.2100000000002 569.2 C 500.7300000000002 568.82 501.2500000000002 568.44 501.7700000000002 568.0600000000001 C 502.1000000000002 567.82 502.43000000000023 567.59 502.7600000000002 567.35 C 503.2500000000002 567 503.74000000000024 566.65 504.23000000000025 566.3100000000001 C 504.5700000000002 566.07 504.90000000000026 565.84 505.24000000000024 565.6 C 505.72000000000025 565.27 506.2000000000002 564.9300000000001 506.68000000000023 564.61 C 507.0200000000002 564.38 507.36000000000024 564.15 507.6900000000002 563.92 C 508.17000000000024 563.5999999999999 508.6500000000002 563.27 509.1300000000002 562.9599999999999 C 509.4600000000002 562.7399999999999 509.79000000000025 562.5199999999999 510.12000000000023 562.3 C 510.61000000000024 561.9799999999999 511.11000000000024 561.66 511.60000000000025 561.3399999999999 C 511.91000000000025 561.1399999999999 512.2200000000003 560.9399999999999 512.5300000000002 560.7399999999999 C 513.0700000000002 560.3899999999999 513.6100000000002 560.06 514.1400000000002 559.7199999999999 C 514.4000000000002 559.56 514.6600000000002 559.3899999999999 514.9200000000002 559.2299999999999 C 515.6600000000002 558.7699999999999 516.4000000000002 558.3199999999999 517.1400000000002 557.8699999999999 C 517.1900000000002 557.8399999999999 517.2500000000002 557.7999999999998 517.3000000000002 557.7699999999999 C 518.0900000000001 557.2899999999998 518.8800000000002 556.8199999999998 519.6700000000002 556.3599999999999 C 519.9100000000002 556.2199999999999 520.1400000000002 556.0899999999999 520.3800000000002 555.9499999999999 C 520.9200000000002 555.6299999999999 521.4700000000003 555.3199999999999 522.0100000000002 555.0099999999999 C 522.3100000000002 554.8399999999999 522.6000000000003 554.6799999999998 522.8900000000002 554.5099999999999 C 523.3700000000002 554.2399999999999 523.8500000000003 553.9699999999999 524.3300000000003 553.6999999999999 C 524.6400000000002 553.53 524.9500000000003 553.3599999999999 525.2700000000003 553.18 C 525.7300000000004 552.93 526.1900000000003 552.68 526.6400000000003 552.43 C 526.9600000000004 552.26 527.2700000000003 552.0899999999999 527.5900000000004 551.92 C 528.0400000000004 551.68 528.4900000000004 551.4399999999999 528.9400000000004 551.2099999999999 C 529.2500000000003 551.05 529.5600000000004 550.8799999999999 529.8700000000003 550.7199999999999 C 530.3300000000004 550.4799999999999 530.7800000000003 550.2499999999999 531.2300000000004 550.0199999999999 C 531.5300000000003 549.8699999999999 531.8200000000004 549.7199999999999 532.1200000000003 549.5699999999998 C 532.5900000000004 549.3299999999998 533.0600000000004 549.0999999999998 533.5300000000003 548.8699999999998 C 533.8000000000003 548.7399999999998 534.0700000000003 548.5999999999998 534.3400000000003 548.4699999999998 C 534.8800000000002 548.2099999999998 535.4200000000003 547.9499999999998 535.9500000000003 547.6899999999998 C 536.1400000000003 547.5999999999998 536.3400000000003 547.4999999999998 536.5300000000003 547.4099999999999 C 537.2600000000003 547.0599999999998 537.9800000000004 546.7199999999998 538.7000000000003 546.3899999999999 C 538.8300000000003 546.3299999999999 538.9500000000003 546.2799999999999 539.0700000000003 546.2199999999999 C 539.6600000000003 545.9499999999999 540.2500000000002 545.68 540.8300000000003 545.42 C 541.0800000000003 545.31 541.3200000000003 545.1999999999999 541.5700000000003 545.0899999999999 C 542.0300000000003 544.8899999999999 542.4900000000002 544.68 542.9400000000003 544.4899999999999 C 543.2100000000003 544.3699999999999 543.4900000000002 544.2499999999999 543.7600000000003 544.1399999999999 C 544.1800000000003 543.9599999999999 544.6000000000004 543.7799999999999 545.0200000000003 543.5999999999999 C 545.3000000000003 543.4799999999999 545.5800000000003 543.3599999999999 545.8600000000004 543.2499999999999 C 546.2700000000003 543.0799999999999 546.6700000000003 542.9099999999999 547.0700000000004 542.7499999999999 C 547.3500000000004 542.6399999999999 547.6300000000003 542.5199999999999 547.9100000000004 542.4099999999999 C 548.3100000000004 542.2499999999999 548.7100000000004 542.0899999999998 549.1100000000005 541.9299999999998 C 549.3800000000005 541.8199999999998 549.6500000000004 541.7199999999998 549.9200000000004 541.6099999999998 C 550.3300000000004 541.4499999999998 550.7300000000004 541.2999999999998 551.1300000000005 541.1399999999998 C 551.3800000000005 541.0399999999997 551.6400000000004 540.9399999999997 551.8900000000004 540.8499999999998 C 552.3200000000004 540.6899999999998 552.7400000000005 540.5299999999997 553.1700000000004 540.3699999999998 C 553.3800000000005 540.2899999999997 553.6000000000004 540.2099999999998 553.8200000000004 540.1299999999998 C 554.3800000000003 539.9199999999997 554.9300000000004 539.7199999999998 555.4800000000004 539.5299999999997 C 555.5500000000004 539.4999999999998 555.6300000000003 539.4799999999998 555.7000000000004 539.4499999999997 C 556.3200000000004 539.2299999999997 556.9400000000004 539.0099999999996 557.5500000000004 538.7999999999997 C 557.7300000000004 538.7399999999998 557.9100000000004 538.6799999999997 558.0900000000004 538.6099999999997 C 558.5100000000003 538.4599999999997 558.9400000000004 538.3199999999997 559.3600000000004 538.1799999999997 C 559.5900000000004 538.0999999999997 559.8100000000004 538.0299999999997 560.0300000000003 537.9599999999997 C 560.4000000000003 537.8399999999997 560.7600000000003 537.7199999999997 561.1200000000003 537.5999999999997 C 561.3600000000004 537.5199999999996 561.5900000000004 537.4499999999997 561.8300000000004 537.3699999999997 C 562.1700000000004 537.2599999999996 562.5200000000004 537.1499999999996 562.8600000000004 537.0399999999996 C 563.0900000000004 536.9699999999996 563.3300000000004 536.8899999999996 563.5600000000004 536.8199999999996 C 563.8900000000004 536.7199999999996 564.2200000000004 536.6199999999995 564.5500000000004 536.5199999999996 C 564.7800000000004 536.4499999999996 565.0100000000004 536.3799999999997 565.2400000000005 536.3099999999996 C 565.5600000000005 536.2099999999996 565.8800000000005 536.1199999999995 566.2000000000005 536.0299999999996 C 566.4200000000005 535.9699999999997 566.6400000000006 535.8999999999996 566.8600000000005 535.8399999999996 C 567.1900000000005 535.7399999999996 567.5100000000004 535.6499999999995 567.8400000000005 535.5599999999996 C 568.0400000000005 535.4999999999997 568.2300000000005 535.4499999999996 568.4300000000005 535.3899999999996 C 568.7900000000005 535.2899999999996 569.1500000000005 535.1899999999996 569.5000000000006 535.0899999999997 C 569.6500000000005 535.0499999999997 569.8000000000005 535.0099999999996 569.9500000000006 534.9699999999997 C 570.4500000000006 534.8399999999997 570.9300000000006 534.7099999999997 571.4100000000007 534.5799999999997 C 571.5000000000007 534.5599999999997 571.5900000000006 534.5299999999997 571.6900000000006 534.5099999999996 C 572.0800000000006 534.4099999999996 572.4600000000006 534.3099999999996 572.8300000000006 534.2199999999997 C 573.0000000000006 534.1799999999997 573.1700000000006 534.1399999999996 573.3400000000006 534.0899999999997 C 573.6200000000006 534.0199999999996 573.9100000000007 533.9499999999997 574.1900000000006 533.8799999999997 C 574.3800000000007 533.8299999999997 574.5700000000006 533.7899999999996 574.7600000000007 533.7399999999997 C 575.0100000000007 533.6799999999997 575.2600000000007 533.6199999999997 575.5100000000007 533.5599999999997 C 575.7000000000007 533.5199999999998 575.8800000000007 533.4699999999997 576.0700000000006 533.4299999999997 C 576.3100000000006 533.3799999999998 576.5400000000006 533.3199999999997 576.7700000000007 533.2699999999998 C 576.9500000000006 533.2299999999998 577.1300000000007 533.1899999999997 577.3100000000006 533.1499999999997 C 577.5400000000006 533.0999999999998 577.7600000000007 533.0499999999997 577.9800000000006 532.9999999999998 C 578.1500000000005 532.9599999999998 578.3200000000006 532.9299999999997 578.4900000000006 532.8899999999998 C 578.7100000000006 532.8399999999998 578.9300000000006 532.7999999999997 579.1400000000006 532.7499999999998 C 579.3000000000005 532.7199999999998 579.4500000000005 532.6799999999997 579.6100000000006 532.6499999999997 C 579.8300000000006 532.5999999999998 580.0500000000006 532.5599999999997 580.2700000000006 532.5199999999998 C 580.4100000000005 532.4899999999998 580.5400000000005 532.4599999999998 580.6800000000005 532.4399999999997 C 580.9400000000005 532.3899999999998 581.2000000000005 532.3399999999997 581.4500000000005 532.2899999999997 C 581.5200000000006 532.2799999999997 581.6000000000005 532.2599999999998 581.6800000000005 532.2499999999998 C 582.0000000000006 532.1899999999998 582.3100000000005 532.1299999999998 582.6100000000005 532.0799999999998 C 582.7400000000005 532.0599999999998 582.8600000000005 532.0399999999998 582.9900000000005 532.0099999999998 C 583.1600000000004 531.9799999999998 583.3200000000005 531.9499999999998 583.4800000000005 531.9199999999997 C 583.6200000000005 531.8999999999997 583.7500000000005 531.8699999999998 583.8800000000005 531.8499999999997 C 584.0200000000004 531.8299999999997 584.1600000000004 531.7999999999997 584.2900000000004 531.7799999999996 C 584.4200000000004 531.7599999999996 584.5500000000004 531.7399999999997 584.6800000000004 531.7199999999997 C 584.8000000000004 531.6999999999997 584.9200000000004 531.6799999999997 585.0400000000004 531.6599999999997 C 585.1600000000004 531.6399999999998 585.2900000000004 531.6199999999998 585.4000000000004 531.5999999999998 C 585.5100000000004 531.5799999999998 585.6200000000005 531.5699999999998 585.7200000000005 531.5499999999998 C 585.8300000000005 531.5299999999999 585.9500000000005 531.5199999999999 586.0500000000005 531.4999999999999 C 586.1500000000005 531.4899999999999 586.2400000000006 531.4699999999999 586.3300000000005 531.4599999999999 C 586.4300000000005 531.4499999999999 586.5300000000005 531.43 586.6300000000005 531.42 C 586.6500000000004 531.42 586.6800000000004 531.42 586.7000000000005 531.42 C 595.1900000000005 548.05 607.3500000000005 562.74 622.0900000000005 574.2199999999999 C 604.1900000000005 588.79 589.0300000000004 606.1099999999999 576.9900000000005 625.7699999999999 Z" stroke-linecap="round" />
</g>
</svg>