<?xml version="1.0" encoding="UTF-8"?>
<svg id="Capa_1" data-name="Capa 1" xmlns="http://www.w3.org/2000/svg" viewBox="0 0 1080 1080">
  <defs>
    <style>
      .cls-1 {
        fill: #000;
        stroke-width: 0px;
      }
    </style>
  </defs>
  <path class="cls-1" d="M628.93,571.64c-15.85-11.55-28.8-26.93-37.47-44.5l-.21-.42c-8.09-16.57-12.19-34.42-12.19-53.06,0-1.9.04-3.83.13-5.72l.25-5.54-4.84,2.71c-2.84,1.59-5.79,3.33-8.79,5.18v-30.28c1.05-2.7,1.88-5.36,2.44-7.93h0s0,0,0,0l.17-.81c.06-.31.13-.61.18-.93l.19-1.09s0,0,0,0h0s0-.05,0-.07c.19-1.22.32-2.44.4-3.63h31.44c1.7,0,3.09-1.38,3.09-3.09s-1.38-3.09-3.09-3.09h-31.31v-111.13h-85.55v111.13h-30.91c-1.7,0-3.09,1.38-3.09,3.09s1.38,3.09,3.09,3.09h30.91v90.31l4.56-2.48c.34-.19,7.48-4.09,17.49-10.77v19.81c-.43.52-.87,1.04-1.29,1.56-16.74,20.5-29.95,43.4-39.28,68.1h0s-.04.1-.04.1c-.01.04-.03.08-.05.12,0,0,0,.01,0,.02l-.12.31c-4.34,11.56-7.81,23.54-10.31,35.6l-.77,3.71h126.48l.9-1.5c12.48-20.77,28.51-38.9,47.65-53.87l3.22-2.52-3.3-2.41ZM525.52,501.34c-.35.33-.7.67-1.05,1.01-.68.65-1.36,1.31-2.03,1.97-.4.4-.8.79-1.2,1.19-.62.62-1.23,1.23-1.84,1.85-.41.42-.82.84-1.22,1.26-.6.62-1.2,1.25-1.79,1.87-.4.42-.79.84-1.18,1.26-.62.67-1.24,1.34-1.85,2.01-.35.38-.7.76-1.05,1.15-.1.11-.2.22-.3.33v-16.88c.06-.04.13-.09.19-.14.88-.62,1.77-1.25,2.67-1.9.19-.14.38-.28.58-.42.89-.64,1.78-1.3,2.68-1.96.06-.04.12-.09.17-.13.93-.7,1.88-1.41,2.82-2.13.21-.16.41-.31.62-.47.93-.72,1.87-1.45,2.81-2.19.16-.12.31-.25.47-.38.87-.7,1.75-1.4,2.62-2.12.15-.12.29-.24.44-.36.94-.77,1.88-1.56,2.82-2.36.21-.18.41-.35.62-.53.95-.82,1.9-1.64,2.85-2.48.08-.07.15-.14.23-.21.9-.8,1.78-1.61,2.67-2.42.18-.17.36-.33.54-.5.91-.85,1.82-1.71,2.72-2.58.18-.17.35-.35.53-.52.88-.86,1.75-1.73,2.61-2.6.06-.06.11-.11.17-.17.89-.91,1.76-1.84,2.63-2.77.18-.2.36-.39.54-.59.85-.92,1.68-1.85,2.5-2.79.13-.14.25-.29.37-.44.76-.88,1.5-1.76,2.23-2.66.12-.15.24-.29.36-.44.77-.96,1.53-1.92,2.26-2.9.16-.21.31-.42.47-.63.74-.99,1.46-1.99,2.16-3,.05-.07.09-.14.14-.21.66-.96,1.29-1.93,1.91-2.9.08-.12.17-.24.24-.37v22.1c-.48.32-.96.64-1.43.96-.46.31-.92.61-1.38.92-.83.56-1.65,1.13-2.47,1.7-.35.25-.71.49-1.06.73-1.16.82-2.32,1.65-3.46,2.48-.23.17-.45.33-.67.5-.92.68-1.85,1.36-2.76,2.06-.4.3-.8.61-1.19.92-.74.57-1.47,1.13-2.2,1.71-.44.34-.87.69-1.3,1.03-.69.55-1.38,1.11-2.07,1.67-.44.36-.87.71-1.31,1.07-.69.57-1.37,1.14-2.05,1.71-.42.35-.83.7-1.24,1.05-.73.63-1.46,1.26-2.18,1.89-.35.31-.7.61-1.05.92-1.04.92-2.07,1.85-3.1,2.79-.03.03-.06.05-.08.08-1.04.96-2.08,1.93-3.1,2.91ZM563.02,425.54c-.01.16-.02.33-.04.49-.02.18-.03.36-.05.54-.06.56-.13,1.11-.22,1.65l-.17,1.02c-.05.26-.1.52-.16.78l-.15.69c-.3,1.26-.62,2.39-1.02,3.55-.08.25-.16.49-.25.73l-.06.17c-.2.52-.41,1.04-.63,1.55l-.04.09c-.09.23-.19.46-.3.69,0,.01,0,.02-.01.03l-.02.03c-5.92,13.06-19.01,21.5-33.34,21.5-19.14,0-34.89-14.77-36.46-33.52h72.92ZM490.1,419.37c1.57-18.74,17.32-33.52,36.46-33.52s34.89,14.77,36.46,33.52h-72.93ZM563.17,314.41v85.93c-7.5-12.37-21.1-20.66-36.6-20.66s-29.1,8.29-36.6,20.66v-85.93h73.21ZM489.96,444.57c7.5,12.37,21.1,20.66,36.6,20.66,6.72,0,13.21-1.59,19.01-4.47-.12.14-.23.27-.35.41-.24.28-.49.57-.74.85-.26.3-.53.6-.8.91-.26.29-.52.58-.78.87-.28.31-.57.62-.85.93-.27.29-.54.59-.82.89-.29.31-.6.63-.9.94-.29.3-.57.6-.87.91-.31.32-.63.64-.94.96-.3.31-.6.61-.92.92-.32.32-.66.65-.99.97-.32.31-.64.63-.97.94-.34.33-.69.66-1.04.98-.34.32-.67.64-1.02.96-.35.33-.72.66-1.09,1-.35.33-.7.65-1.07.98-.37.34-.76.67-1.14,1.01-.37.33-.74.66-1.12.99-.39.34-.8.69-1.2,1.03-.39.33-.77.67-1.16,1-.41.35-.84.7-1.26,1.06-.4.34-.8.67-1.21,1.01-.44.36-.89.72-1.33,1.08-.41.34-.82.67-1.25,1.01-.46.37-.95.75-1.42,1.12-.42.33-.84.66-1.27,1-.5.39-1.02.78-1.53,1.17-.43.33-.84.65-1.28.98-.56.42-1.13.84-1.7,1.27-.41.3-.81.6-1.22.91-.67.49-1.37.99-2.06,1.49-.33.24-.65.47-.98.71-1.03.74-2.09,1.48-3.16,2.23l-.03.02c-7.07,4.92-13.23,8.73-17.17,11.06v-60.74ZM509.34,527.87c.64-.79,1.29-1.58,1.96-2.37,1.91-2.28,3.87-4.53,5.86-6.73,13.94-15.44,29.81-28.97,47.26-40.29h.01c1.43-.93,2.86-1.84,4.3-2.73,1.4-.87,2.79-1.71,4.17-2.53,0,.15,0,.29,0,.44,0,18.14,3.7,35.58,11.01,51.9-.04,0-.09.02-.14.02-.33.05-.67.1-1.03.16-.07.01-.15.03-.22.04-.32.05-.64.11-.98.17-.13.02-.26.05-.39.07-.34.06-.7.13-1.07.2-.09.02-.18.03-.28.05-.46.09-.93.18-1.43.28-.12.02-.24.05-.35.07-.4.08-.81.17-1.24.26-.14.03-.28.06-.43.09-.54.12-1.1.24-1.68.37-.02,0-.05.01-.07.02-.55.12-1.11.26-1.69.4-.16.04-.32.08-.48.12-.51.12-1.03.25-1.57.39-.12.03-.23.06-.35.09-.64.16-1.3.33-1.97.51-.15.04-.3.08-.45.12-.54.15-1.1.3-1.66.46-.19.05-.37.1-.56.16-.71.2-1.44.41-2.18.63-.01,0-.02,0-.03,0-.72.21-1.46.44-2.21.67-.21.06-.42.13-.63.2-.62.2-1.26.4-1.9.61-.17.05-.33.11-.5.16-.79.26-1.59.53-2.41.81-.18.06-.37.13-.55.19-.66.23-1.32.46-2,.7-.24.08-.47.17-.71.25-.85.31-1.71.62-2.58.95-.61.23-1.24.47-1.87.72-.21.08-.42.16-.63.25-.43.17-.86.34-1.3.52-.25.1-.5.2-.75.3-.41.17-.82.33-1.23.5-.27.11-.55.23-.82.34-.4.17-.8.34-1.21.51-.29.12-.57.24-.86.37-.41.17-.82.35-1.23.53-.29.13-.59.26-.88.39-.42.18-.83.37-1.25.56-.3.13-.6.27-.9.41-.43.2-.87.4-1.31.6-.29.14-.58.27-.88.41-.46.22-.93.44-1.39.66-.28.13-.56.27-.84.4-.5.24-1.01.49-1.52.74-.25.12-.5.25-.75.37-.61.3-1.22.61-1.84.93-.16.08-.31.16-.47.24-.79.41-1.59.82-2.39,1.24-.01,0-.02.01-.04.02-.77.41-1.56.83-2.34,1.26-.22.12-.44.24-.66.36-.58.32-1.17.64-1.75.97-.28.16-.56.32-.84.48-.53.3-1.06.6-1.6.91-.31.18-.63.36-.94.54-.51.3-1.03.6-1.55.91-.32.19-.65.39-.97.58-.51.31-1.03.62-1.54.93-.33.2-.66.4-.99.61-.52.32-1.03.64-1.55.97-.33.21-.67.42-1,.63-.53.33-1.05.67-1.58,1.02-.33.21-.66.42-.98.64-.55.36-1.1.73-1.66,1.1-.31.21-.62.41-.93.62-.6.4-1.2.81-1.8,1.23-.27.18-.54.37-.81.55-.75.52-1.51,1.05-2.27,1.59-.12.08-.24.16-.35.25-.89.63-1.78,1.28-2.67,1.93-.15.11-.31.23-.46.34-.73.54-1.46,1.08-2.19,1.63-.29.22-.59.45-.88.67-.59.45-1.18.9-1.78,1.37-.34.27-.68.54-1.03.81-.55.43-1.1.86-1.64,1.3-.36.29-.73.59-1.09.88-.53.43-1.06.86-1.58,1.29-.38.31-.76.63-1.14.95-.52.43-1.03.86-1.55,1.3-.39.33-.77.66-1.16.99-.51.44-1.03.89-1.54,1.34-.39.34-.77.68-1.16,1.02-.52.46-1.03.92-1.55,1.39-.39.35-.77.69-1.16,1.05-.13.12-.27.24-.4.37,8.51-18.87,19.44-36.54,32.62-52.68ZM576.98,625.76h-115.38c2.32-10.31,5.35-20.53,9.04-30.44l.6-.68c.74-.85,1.44-1.66,2.18-2.4.83-.83,1.65-1.64,2.48-2.44.27-.26.55-.52.82-.79.55-.53,1.11-1.07,1.67-1.59.33-.31.65-.61.98-.91.5-.47,1.01-.94,1.51-1.4.34-.32.69-.63,1.03-.94.49-.44.98-.89,1.47-1.32.35-.31.69-.62,1.04-.92.49-.43.98-.86,1.47-1.28.35-.3.69-.6,1.04-.89.5-.43.99-.84,1.49-1.26.33-.28.67-.56,1-.84.52-.44,1.05-.87,1.57-1.29.3-.25.61-.5.91-.74.61-.5,1.22-.98,1.83-1.47.22-.17.43-.35.65-.52.82-.65,1.65-1.29,2.47-1.92.18-.14.37-.28.55-.42.64-.48,1.27-.97,1.91-1.44.3-.22.6-.44.9-.66.52-.38,1.04-.76,1.56-1.14.33-.24.66-.47.99-.71.49-.35.98-.7,1.47-1.04.34-.24.67-.47,1.01-.71.48-.33.96-.67,1.44-.99.34-.23.68-.46,1.01-.69.48-.32.96-.65,1.44-.96.33-.22.66-.44.99-.66.49-.32.99-.64,1.48-.96.31-.2.62-.4.93-.6.54-.35,1.08-.68,1.61-1.02.26-.16.52-.33.78-.49.74-.46,1.48-.91,2.22-1.36.05-.03.11-.07.16-.1.79-.48,1.58-.95,2.37-1.41.24-.14.47-.27.71-.41.54-.32,1.09-.63,1.63-.94.3-.17.59-.33.88-.5.48-.27.96-.54,1.44-.81.31-.17.62-.34.94-.52.46-.25.92-.5,1.37-.75.32-.17.63-.34.95-.51.45-.24.9-.48,1.35-.71.31-.16.62-.33.93-.49.46-.24.91-.47,1.36-.7.3-.15.59-.3.89-.45.47-.24.94-.47,1.41-.7.27-.13.54-.27.81-.4.54-.26,1.08-.52,1.61-.78.19-.09.39-.19.58-.28.73-.35,1.45-.69,2.17-1.02.13-.06.25-.11.37-.17.59-.27,1.18-.54,1.76-.8.25-.11.49-.22.74-.33.46-.2.92-.41,1.37-.6.27-.12.55-.24.82-.35.42-.18.84-.36,1.26-.54.28-.12.56-.24.84-.35.41-.17.81-.34,1.21-.5.28-.11.56-.23.84-.34.4-.16.8-.32,1.2-.48.27-.11.54-.21.81-.32.41-.16.81-.31,1.21-.47.25-.1.51-.2.76-.29.43-.16.85-.32,1.28-.48.21-.08.43-.16.65-.24.56-.21,1.11-.41,1.66-.6.07-.03.15-.05.22-.08.62-.22,1.24-.44,1.85-.65.18-.06.36-.12.54-.19.42-.15.85-.29,1.27-.43.23-.08.45-.15.67-.22.37-.12.73-.24,1.09-.36.24-.08.47-.15.71-.23.34-.11.69-.22,1.03-.33.23-.07.47-.15.7-.22.33-.1.66-.2.99-.3.23-.07.46-.14.69-.21.32-.1.64-.19.96-.28.22-.06.44-.13.66-.19.33-.1.65-.19.98-.28.2-.06.39-.11.59-.17.36-.1.72-.2,1.07-.3.15-.04.3-.08.45-.12.5-.13.98-.26,1.46-.39.09-.02.18-.05.28-.07.39-.1.77-.2,1.14-.29.17-.04.34-.08.51-.13.28-.07.57-.14.85-.21.19-.05.38-.09.57-.14.25-.06.5-.12.75-.18.19-.04.37-.09.56-.13.24-.05.47-.11.7-.16.18-.04.36-.08.54-.12.23-.05.45-.1.67-.15.17-.04.34-.07.51-.11.22-.05.44-.09.65-.14.16-.03.31-.07.47-.1.22-.05.44-.09.66-.13.14-.03.27-.06.41-.08.26-.05.52-.1.77-.15.07-.01.15-.03.23-.04.32-.06.63-.12.93-.17.13-.02.25-.04.38-.07.17-.03.33-.06.49-.09.14-.02.27-.05.4-.07.14-.02.28-.05.41-.07.13-.02.26-.04.39-.06.12-.02.24-.04.36-.06.12-.02.25-.04.36-.06.11-.02.22-.03.32-.05.11-.02.23-.03.33-.05.1-.01.19-.03.28-.04.1-.01.2-.03.3-.04.02,0,.05,0,.07,0,8.49,16.63,20.65,31.32,35.39,42.8-17.9,14.57-33.06,31.89-45.1,51.55Z"/>
  <g>
    <g>
      <path class="cls-1" d="M210.35,740.66c-5.95,0-10.16-.67-14.58-2.11v-2.49c0-4.51-.19-6.23-.38-9.01h1.63c0,2.11.86,4.6,2.3,6.23,3.07,3.36,8.05,3.93,10.07,3.93,5.08,0,14.19-.38,14.19-11.6,0-7.1-4.6-9.78-10.45-13.71l-5.37-3.64c-5.56-3.74-10.84-7.67-10.84-15.92,0-2.69.67-15.82,19.47-15.82,7.86,0,13.81,1.06,13.81,1.06,0,0-.19,2.49-.19,5.27,0,2.3.1,4.22.19,6.33h-1.53c-.19-2.78-1.05-4.8-2.49-6.23-2.21-2.2-5.56-3.07-9.68-3.07-12.27,0-12.37,7.77-12.37,10.45,0,6.04,4.22,8.73,9.4,12.18l5.95,3.93c4.89,3.16,11.79,7.19,11.79,16.88,0,16.97-17.26,17.36-20.9,17.36Z"/>
      <path class="cls-1" d="M264.93,740.85c-15.92,0-24.57-10.91-24.57-26.43s9.13-27.81,25.38-27.81,24.57,10.91,24.57,26.43-9.13,27.81-25.38,27.81ZM265.5,689.76c-14.95,0-17.78,15.52-17.78,24.01,0,11.15,4.04,23.93,17.46,23.93,14.95,0,17.78-15.52,17.78-24.01,0-11.15-4.04-23.93-17.46-23.93Z"/>
      <path class="cls-1" d="M350.94,740.04c-2.83,0-4.93,0-8.41.32v-1.13c.97-.08,2.83-.4,4.04-1.78,1.21-1.37,1.13-4.12,1.13-5.82,0-.57-1.29-36.37-1.29-36.37,0,0-.57,2.02-1.54,4.28l-17.46,40.98h-1.46l-17.06-40.98c-.97-2.34-1.54-4.37-1.54-4.37,0,0-1.37,34.76-1.37,36.29s-.16,4.12.65,5.58c.08.16,1.13,1.86,4.28,2.18v1.13c-3.15-.24-4.77-.32-7.6-.32s-3.48,0-6.95.32v-1.13c.97-.08,2.75-.4,3.96-1.78,1.29-1.46,1.37-3.56,1.7-10.02l1.29-27.32c.08-1.13.24-5.17.24-6.06,0-2.18-.24-2.99-.81-3.8-.4-.65-1.62-1.86-4.2-2.1v-1.13c3.23.16,3.96.32,6.79.32,1.37,0,3.88-.08,5.09-.24l16.49,39.69c.89,2.1,1.21,3.64,1.21,3.64,0,0,.49-1.62,1.29-3.56l16.81-39.77c1.21.16,3.23.24,4.61.24,2.83,0,3.4,0,6.87-.32v1.13c-1.62.16-2.99.57-3.96,1.78-.89,1.05-1.13,2.26-1.13,4.61,0,1.21.08,3.39.16,5.09l1.21,28.94c.24,5.01.32,7.27,1.29,8.65.16.24,1.21,1.78,4.12,2.02v1.13c-3.15-.16-5.66-.32-8.49-.32Z"/>
      <path class="cls-1" d="M399.92,735.76c-3.96,3.96-9.86,4.61-15.6,4.61-3.31,0-6.47-.32-9.46-.32-2.83,0-4.85,0-8.33.32v-1.13c1.05-.08,2.75-.4,3.96-1.78,1.37-1.54,1.46-3.8,1.46-10.75v-28.45c0-6.22-.24-7.52-1.7-8.81-.65-.57-1.94-1.13-3.48-1.29v-1.13s2.67.32,6.63.32c3.64,0,5.66-.24,11.07-.24,4.12,0,16.65.24,16.65,11.88,0,7.52-4.93,11.48-11.8,12.93,8.49.73,14.63,4.45,14.63,13.66,0,3.88-1.29,7.44-4.04,10.18ZM382.54,689.76c-1.54,0-4.12.32-4.12.32v20.53c1.21.08,2.91.16,4.69.16,2.18,0,4.28-.16,5.5-.65.49-.16,5.66-2.1,5.66-10.02,0-9.94-7.52-10.35-11.72-10.35ZM382.62,713.53c-2.75,0-3.07.08-4.2.16v19.97c0,2.59.73,3.56,2.83,3.8,1.13.16,2.59.16,3.64.16,6.87-.08,12.04-3.07,12.04-12.21,0-11.15-9.38-11.88-14.31-11.88Z"/>
      <path class="cls-1" d="M454.23,740.61c-5.58,0-8.08-2.59-11.32-6.31-2.18-2.51-11.24-13.98-13.18-16.73h-6.47v11.56c0,6.22.24,7.52,1.7,8.81.65.57,1.94,1.13,3.48,1.29v1.13c-3.15-.16-5.58-.32-8.41-.32s-5.17,0-8.65.32v-1.13c.97,0,2.75-.4,3.96-1.78,1.37-1.54,1.46-3.8,1.46-10.75v-28.45c0-6.22-.24-7.52-1.7-8.81-.65-.57-1.94-1.13-3.48-1.29v-1.13s3.88.32,5.98.32c5.74,0,7.11-.24,10.18-.24,1.86,0,5.74,0,8.97.81,9.62,2.43,10.59,9.7,10.59,13.18,0,7.92-5.42,12.93-11.48,14.79,0,0,8.57,10.02,13.42,15.52,3.88,4.45,7.27,7.68,10.67,7.76v1.05c-.65,0-2.26.4-5.74.4ZM427.56,689.76c-1.45,0-2.83.08-4.28.32v24.17c2.1.49,4.04.57,6.22.57.97,0,2.02-.08,2.59-.16,1.62-.24,8.33-1.7,8.33-12.85s-8.24-12.04-12.85-12.04Z"/>
      <path class="cls-1" d="M494.08,740.2h-19.4c-4.53,0-8.89-.08-13.42.16v-1.13c1.13-.08,2.75-.4,3.96-1.78,1.37-1.54,1.46-3.8,1.46-10.75v-28.29c0-5.98-.08-7.19-1.37-8.65-.81-.89-1.94-1.37-3.8-1.54v-1.13c4.45.24,7.03.24,11.56.24h20.77s-.08,6.14.24,9.86h-1.29c-.08-2.59-.89-4.36-2.02-5.33-1.62-1.46-3.96-1.54-7.19-1.54h-10.27v20.85h9.38c3.4,0,5.09-.24,6.3-1.54,1.37-1.37,1.37-3.4,1.46-4.69h1.21c0,1.78-.16,2.59-.16,7.68s.16,5.66.24,7.52h-1.29c0-1.37-.16-3.23-1.54-4.61-1.21-1.29-3.31-1.46-6.39-1.46h-9.21v19c0,3.64.89,4.12,5.25,4.12h5.17c3.56,0,5.82-.16,7.36-1.7,1.05-1.13,1.86-2.91,1.94-5.74h1.29c-.32,3.72-.24,10.43-.24,10.43Z"/>
      <path class="cls-1" d="M545.73,740.61c-5.58,0-8.08-2.59-11.32-6.31-2.18-2.51-11.24-13.98-13.18-16.73h-6.47v11.56c0,6.22.24,7.52,1.7,8.81.65.57,1.94,1.13,3.48,1.29v1.13c-3.15-.16-5.58-.32-8.41-.32s-5.17,0-8.65.32v-1.13c.97,0,2.75-.4,3.96-1.78,1.37-1.54,1.46-3.8,1.46-10.75v-28.45c0-6.22-.24-7.52-1.7-8.81-.65-.57-1.94-1.13-3.48-1.29v-1.13s3.88.32,5.98.32c5.74,0,7.11-.24,10.18-.24,1.86,0,5.74,0,8.97.81,9.62,2.43,10.59,9.7,10.59,13.18,0,7.92-5.42,12.93-11.48,14.79,0,0,8.57,10.02,13.42,15.52,3.88,4.45,7.27,7.68,10.67,7.76v1.05c-.65,0-2.26.4-5.74.4ZM519.06,689.76c-1.45,0-2.83.08-4.28.32v24.17c2.1.49,4.04.57,6.22.57.97,0,2.02-.08,2.59-.16,1.62-.24,8.33-1.7,8.33-12.85s-8.24-12.04-12.85-12.04Z"/>
      <path class="cls-1" d="M575.72,740.85c-15.92,0-24.57-10.91-24.57-26.43s9.13-27.81,25.38-27.81,24.57,10.91,24.57,26.43-9.13,27.81-25.38,27.81ZM576.28,689.76c-14.95,0-17.78,15.52-17.78,24.01,0,11.15,4.04,23.93,17.46,23.93,14.95,0,17.78-15.52,17.78-24.01,0-11.15-4.04-23.93-17.46-23.93Z"/>
      <path class="cls-1" d="M680.07,680.44c-1.63,1.82-1.73,4.51-1.73,12.75v47.27h-3.16l-38.45-49.29c-1.44-1.92-2.3-3.55-2.3-3.55v39.31c0,7.38.29,8.92,2.01,10.45.77.67,2.3,1.34,4.12,1.53v1.34c-3.74-.19-5.27-.38-8.63-.38s-4.6,0-8.73.38v-1.34c1.25-.1,3.26-.48,4.7-2.11,1.63-1.82,1.73-4.51,1.73-12.75v-33.75c0-7.38-.29-8.92-2.01-10.45-.77-.67-2.3-1.34-4.12-1.53v-1.34c3.74.19,3.84.29,7.19.29,1.44,0,2.2,0,4.79-.19l35,44.88c2.01,2.59,3.07,4.7,3.07,4.7v-36.34c0-7.38-.29-8.92-2.01-10.45-.77-.67-2.3-1.34-4.12-1.53v-1.34c3.74.19,5.27.38,8.63.38s4.6,0,8.73-.38v1.34c-1.15,0-3.26.48-4.7,2.11Z"/>
      <path class="cls-1" d="M723.27,740.2h-19.4c-4.53,0-8.89-.08-13.42.16v-1.13c1.13-.08,2.75-.4,3.96-1.78,1.37-1.54,1.46-3.8,1.46-10.75v-28.29c0-5.98-.08-7.19-1.37-8.65-.81-.89-1.94-1.37-3.8-1.54v-1.13c4.45.24,7.03.24,11.56.24h20.77s-.08,6.14.24,9.86h-1.29c-.08-2.59-.89-4.36-2.02-5.33-1.62-1.46-3.96-1.54-7.19-1.54h-10.27v20.85h9.38c3.4,0,5.09-.24,6.31-1.54,1.37-1.37,1.37-3.4,1.46-4.69h1.21c0,1.78-.16,2.59-.16,7.68s.16,5.66.24,7.52h-1.29c0-1.37-.16-3.23-1.54-4.61-1.21-1.29-3.31-1.46-6.39-1.46h-9.21v19c0,3.64.89,4.12,5.25,4.12h5.17c3.56,0,5.82-.16,7.36-1.7,1.05-1.13,1.86-2.91,1.94-5.74h1.29c-.32,3.72-.24,10.43-.24,10.43Z"/>
      <path class="cls-1" d="M776.62,720.24c-1.37,1.54-1.46,3.8-1.46,10.75v7.92c-3.72,1.21-10.27,1.78-14.55,1.78-10.59,0-18.67-2.99-23.52-9.21-3.23-4.04-5.01-9.54-5.01-16.57,0-13.98,7.28-22.88,17.94-26.59,4.28-1.46,9.62-1.7,12.77-1.7,6.22,0,11.96.89,12.69.89-.16,1.54-.16,3.23-.16,4.85,0,2.1.08,3.88.16,4.93h-1.29c.08-1.86-.97-3.64-2.1-4.69-2.67-2.51-7.76-2.67-11.07-2.67-7.03,0-21.58.73-21.58,24.01,0,19.32,10.91,23.6,23.52,23.6,1.86,0,3.72-.16,5.66-.32v-8.65c0-6.22-.24-7.52-1.7-8.81-.65-.57-1.94-1.13-3.48-1.29v-1.13c3.15.16,5.58.32,8.41.32s5.25,0,8.73-.32v1.13c-.97,0-2.75.4-3.96,1.78Z"/>
      <path class="cls-1" d="M829.24,740.61c-5.58,0-8.08-2.59-11.32-6.31-2.18-2.51-11.24-13.98-13.18-16.73h-6.47v11.56c0,6.22.24,7.52,1.7,8.81.65.57,1.94,1.13,3.48,1.29v1.13c-3.15-.16-5.58-.32-8.41-.32s-5.17,0-8.65.32v-1.13c.97,0,2.75-.4,3.96-1.78,1.37-1.54,1.46-3.8,1.46-10.75v-28.45c0-6.22-.24-7.52-1.7-8.81-.65-.57-1.94-1.13-3.48-1.29v-1.13s3.88.32,5.98.32c5.74,0,7.11-.24,10.19-.24,1.86,0,5.74,0,8.97.81,9.62,2.43,10.59,9.7,10.59,13.18,0,7.92-5.42,12.93-11.48,14.79,0,0,8.57,10.02,13.42,15.52,3.88,4.45,7.28,7.68,10.67,7.76v1.05c-.65,0-2.26.4-5.74.4ZM802.57,689.76c-1.46,0-2.83.08-4.28.32v24.17c2.1.49,4.04.57,6.22.57.97,0,2.02-.08,2.59-.16,1.62-.24,8.33-1.7,8.33-12.85s-8.25-12.04-12.85-12.04Z"/>
      <path class="cls-1" d="M859.23,740.85c-15.92,0-24.57-10.91-24.57-26.43s9.13-27.81,25.38-27.81,24.57,10.91,24.57,26.43-9.13,27.81-25.38,27.81ZM859.79,689.76c-14.95,0-17.78,15.52-17.78,24.01,0,11.15,4.04,23.93,17.46,23.93,14.95,0,17.78-15.52,17.78-24.01,0-11.15-4.04-23.93-17.46-23.93Z"/>
    </g>
    <g>
      <path class="cls-1" d="M296,771.39v-13.31h7.75v1.24h-6.38v4.67h5.36v1.23h-5.36v4.93h6.61v1.24h-7.98Z"/>
      <path class="cls-1" d="M315,770.26v-1.6c1.02.89,2.45,1.73,4.13,1.73s2.87-.92,2.87-2.45-1.2-2.21-3.07-2.84c-1.87-.61-3.81-1.47-3.81-3.89,0-2.24,2.02-3.39,4.01-3.39,1.81,0,3.04.61,3.76,1.05v1.61c-1.13-.89-2.33-1.4-3.76-1.4s-2.6.69-2.6,2.13,1.1,2.03,2.97,2.66c1.86.63,3.89,1.5,3.89,4.05,0,2.39-2.16,3.75-4.26,3.75-1.86,0-3.31-.82-4.13-1.41Z"/>
      <path class="cls-1" d="M337.93,771.39v-12.05h-4.07v-1.26h9.53v1.26h-4.09v12.05h-1.37Z"/>
      <path class="cls-1" d="M354.47,766.32v-8.24h1.36v8.24c0,2.79,1.44,4.07,3.7,4.07s3.75-1.26,3.75-4.07v-8.24h1.34v8.25c0,3.49-2.1,5.31-5.09,5.31s-5.05-1.83-5.05-5.33Z"/>
      <path class="cls-1" d="M377.05,771.39v-13.31h3.83c4.93,0,7.17,3.38,7.17,6.65s-2.23,6.65-7.17,6.65h-3.83ZM378.41,770.15h2.49c4.1,0,5.77-2.81,5.77-5.41s-1.65-5.41-5.77-5.41h-2.49v10.82Z"/>
      <path class="cls-1" d="M400.15,771.39v-13.31h1.36v13.31h-1.36Z"/>
      <path class="cls-1" d="M413.6,764.74c0-3.81,3.13-6.91,6.91-6.91s6.94,3.12,6.94,6.91-3.15,6.93-6.94,6.93-6.91-3.12-6.91-6.93ZM426.05,764.74c0-3.13-2.45-5.65-5.54-5.65s-5.52,2.52-5.52,5.65,2.45,5.67,5.52,5.67,5.54-2.53,5.54-5.67Z"/>
      <path class="cls-1" d="M453.06,771.39v-13.31h3.83c4.93,0,7.17,3.38,7.17,6.65s-2.23,6.65-7.17,6.65h-3.83ZM454.41,770.15h2.49c4.1,0,5.77-2.81,5.77-5.41s-1.65-5.41-5.77-5.41h-2.49v10.82Z"/>
      <path class="cls-1" d="M476.15,771.39v-13.31h7.75v1.24h-6.38v4.67h5.36v1.23h-5.36v4.93h6.61v1.24h-7.98Z"/>
      <path class="cls-1" d="M509.41,771.39v-13.31h3.83c4.93,0,7.17,3.38,7.17,6.65s-2.23,6.65-7.17,6.65h-3.83ZM510.77,770.15h2.49c4.1,0,5.77-2.81,5.77-5.41s-1.65-5.41-5.77-5.41h-2.49v10.82Z"/>
      <path class="cls-1" d="M532.51,771.39v-13.31h1.36v13.31h-1.36Z"/>
      <path class="cls-1" d="M545.8,770.26v-1.6c1.02.89,2.45,1.73,4.13,1.73s2.87-.92,2.87-2.45-1.2-2.21-3.07-2.84c-1.87-.61-3.81-1.47-3.81-3.89,0-2.24,2.02-3.39,4.01-3.39,1.81,0,3.04.61,3.76,1.05v1.61c-1.13-.89-2.33-1.4-3.76-1.4s-2.6.69-2.6,2.13,1.1,2.03,2.97,2.66c1.86.63,3.89,1.5,3.89,4.05,0,2.39-2.16,3.75-4.26,3.75-1.86,0-3.31-.82-4.13-1.41Z"/>
      <path class="cls-1" d="M566.1,771.39v-13.31h7.75v1.24h-6.38v4.67h5.36v1.23h-5.36v4.93h6.61v1.24h-7.98Z"/>
      <path class="cls-1" d="M585.85,771.39v-13.63l9.59,10.79c-.05-1.57-.08-3.05-.08-4.67v-5.8h1.34v13.68l-9.56-10.8c.02,1.55.05,3.09.05,4.64v5.8h-1.34ZM589.94,754.91c-.61,0-.79.86-.86,1.63l-1.03-.16c.18-1.76.81-2.6,1.86-2.6,1.24,0,2,1.74,2.73,1.74.61,0,.78-.87.86-1.65l1.02.16c-.16,1.78-.81,2.6-1.84,2.6-1.24,0-2.02-1.73-2.73-1.73Z"/>
      <path class="cls-1" d="M608.8,764.74c0-3.81,3.13-6.91,6.91-6.91s6.94,3.12,6.94,6.91-3.15,6.93-6.94,6.93-6.91-3.12-6.91-6.93ZM621.26,764.74c0-3.13-2.45-5.65-5.54-5.65s-5.52,2.52-5.52,5.65,2.45,5.67,5.52,5.67,5.54-2.53,5.54-5.67Z"/>
      <path class="cls-1" d="M647.66,764.74c0-3.81,3.1-6.91,7.04-6.91,1.81,0,3.41.61,4.55,1.52v1.68c-1.23-1.2-2.79-1.94-4.55-1.94-3.23,0-5.65,2.52-5.65,5.65s2.42,5.67,5.65,5.67c1.47,0,2.66-.47,3.44-1v-3.12h-3.13v-1.21h4.47v5.02c-.98.73-2.65,1.57-4.78,1.57-3.94,0-7.04-3.12-7.04-6.93Z"/>
      <path class="cls-1" d="M681.16,771.39h-1.79l-4.99-5.31h-1.11v5.31h-1.36v-13.31h3.58c2.88,0,4.65,1.78,4.65,4.01,0,2.07-1.61,3.73-4.1,3.96l5.12,5.35ZM673.26,759.31v5.56h2.23c2.08,0,3.26-1.29,3.26-2.78s-1.16-2.78-3.26-2.78h-2.23Z"/>
      <path class="cls-1" d="M702.21,771.39l-1.37-3h-7.07l-1.37,3h-1.5l6.41-13.68,6.43,13.68h-1.52ZM694.33,767.16h5.94l-2.97-6.52-2.97,6.52ZM699.38,753.82l-2.08,2.78h-1.29l1.94-2.78h1.44Z"/>
      <path class="cls-1" d="M714.93,771.39v-13.31h7.77v1.26h-6.41v5.2h5.67v1.26h-5.67v5.59h-1.36Z"/>
      <path class="cls-1" d="M734.46,771.39v-13.31h1.36v13.31h-1.36Z"/>
      <path class="cls-1" d="M747.92,764.74c0-3.86,3.13-6.91,7.01-6.91,1.68,0,3.18.57,4.25,1.36v1.65c-1.08-1.08-2.65-1.74-4.25-1.74-3.17,0-5.62,2.53-5.62,5.65s2.45,5.65,5.62,5.65c1.65,0,3.18-.69,4.25-1.74v1.66c-1.1.79-2.57,1.36-4.26,1.36-3.86,0-6.99-3.07-6.99-6.93Z"/>
      <path class="cls-1" d="M770.14,764.74c0-3.81,3.13-6.91,6.91-6.91s6.94,3.12,6.94,6.91-3.15,6.93-6.94,6.93-6.91-3.12-6.91-6.93ZM782.59,764.74c0-3.13-2.45-5.65-5.54-5.65s-5.52,2.52-5.52,5.65,2.45,5.67,5.52,5.67,5.54-2.53,5.54-5.67Z"/>
    </g>
  </g>
</svg>